# xmcd
#
# Track frame offsets: 
#        225
#        15323
#        31385
#        45784
#        62295
#        86311
#        102408
#        117527
#        132220
#        146495
#        161852
#        178926
#        195861
#        214939
#
# Disc length: 3194 seconds
#
# Revision: 0
# Processed by: cddbd v1.5.1PL0 Copyright (c) Steve Scherf et al.
# Submitted via: ExactAudioCopy v0.95a4
#
DISCID=b40c770e
DTITLE=Honky Tonk Heroes - Honky Tonk Heroes
DYEAR=1996
DGENRE=Country
TTITLE0=Eyes of Texas
TTITLE1=Manana can wait
TTITLE2=Boogie at the Rattlesnake Inn
TTITLE3=Ridin' high on the wind
TTITLE4=City Life - Country Home
TTITLE5=On a real lucky night
TTITLE6=Cowboys dream
TTITLE7=Talk to me
TTITLE8=Southern States of Dixie
TTITLE9=I can't dance
TTITLE10=Gonna loose again
TTITLE11=Play that country music
TTITLE12=Where the lovers go
TTITLE13=Don't you say goodbye
EXTD=
EXTT0=
EXTT1=
EXTT2=
EXTT3=
EXTT4=
EXTT5=
EXTT6=
EXTT7=
EXTT8=
EXTT9=
EXTT10=
EXTT11=
EXTT12=
EXTT13=
PLAYORDER=
